<svg width="78" height="66" viewBox="0 0 78 66" fill="none" xmlns="http://www.w3.org/2000/svg">
<path d="M23.4001 39.6C19.0321 39.6 15.6001 36.696 15.6001 33C15.6001 29.304 19.0321 26.4 23.4001 26.4C27.7681 26.4 31.2001 29.304 31.2001 33C31.2001 36.696 27.7681 39.6 23.4001 39.6ZM23.4001 29.04C20.7481 29.04 18.7201 30.756 18.7201 33C18.7201 35.244 20.7481 36.96 23.4001 36.96C26.0521 36.96 28.0801 35.244 28.0801 33C28.0801 30.756 26.0521 29.04 23.4001 29.04Z" fill="black"/>
<path d="M54.5998 26.4C50.2318 26.4 46.7998 23.496 46.7998 19.8C46.7998 16.104 50.2318 13.2 54.5998 13.2C58.9678 13.2 62.3998 16.104 62.3998 19.8C62.3998 23.496 58.9678 26.4 54.5998 26.4ZM54.5998 15.84C51.9478 15.84 49.9198 17.556 49.9198 19.8C49.9198 22.044 51.9478 23.76 54.5998 23.76C57.2518 23.76 59.2798 22.044 59.2798 19.8C59.2798 17.556 57.2518 15.84 54.5998 15.84Z" fill="black"/>
<path d="M54.5998 52.8C50.2318 52.8 46.7998 49.896 46.7998 46.2C46.7998 42.504 50.2318 39.6 54.5998 39.6C58.9678 39.6 62.3998 42.504 62.3998 46.2C62.3998 49.896 58.9678 52.8 54.5998 52.8ZM54.5998 42.24C51.9478 42.24 49.9198 43.956 49.9198 46.2C49.9198 48.444 51.9478 50.16 54.5998 50.16C57.2518 50.16 59.2798 48.444 59.2798 46.2C59.2798 43.956 57.2518 42.24 54.5998 42.24Z" fill="black"/>
<path d="M29.6506 34.1682L49.7434 42.669L48.3472 45.0292L28.2544 36.5284L29.6506 34.1682Z" fill="black"/>
<path d="M48.3491 20.9682L49.7438 23.331L29.651 31.8292L28.2563 29.4664L48.3491 20.9682Z" fill="black"/>
</svg>
